<svg xmlns="http://www.w3.org/2000/svg" viewBox="0 0 144 168" shape-rendering="crispEdges">
  <rect width="144" height="168" fill="#FBE9D2"/>
  <g fill="#B83A26">
    <rect x="48" y="0" width="12" height="12"/><rect x="60" y="0" width="12" height="12"/><rect x="72" y="0" width="12" height="12"/><rect x="84" y="0" width="12" height="12"/>
    <rect x="24" y="12" width="12" height="12"/><rect x="36" y="12" width="12" height="12"/><rect x="48" y="12" width="12" height="12"/><rect x="60" y="12" width="12" height="12"/><rect x="72" y="12" width="12" height="12"/><rect x="84" y="12" width="12" height="12"/><rect x="96" y="12" width="12" height="12"/><rect x="108" y="12" width="12" height="12"/>
    <rect x="12" y="24" width="12" height="12"/><rect x="24" y="24" width="12" height="12"/><rect x="36" y="24" width="12" height="12"/><rect x="48" y="24" width="12" height="12"/><rect x="60" y="24" width="12" height="12"/><rect x="72" y="24" width="12" height="12"/><rect x="84" y="24" width="12" height="12"/><rect x="96" y="24" width="12" height="12"/><rect x="108" y="24" width="12" height="12"/><rect x="120" y="24" width="12" height="12"/>
    <rect x="0" y="36" width="12" height="12"/><rect x="12" y="36" width="12" height="12"/><rect x="24" y="36" width="12" height="12"/><rect x="36" y="36" width="12" height="12"/><rect x="48" y="36" width="12" height="12"/><rect x="60" y="36" width="12" height="12"/><rect x="72" y="36" width="12" height="12"/><rect x="84" y="36" width="12" height="12"/><rect x="96" y="36" width="12" height="12"/><rect x="108" y="36" width="12" height="12"/><rect x="120" y="36" width="12" height="12"/><rect x="132" y="36" width="12" height="12"/>
    <rect x="0" y="48" width="12" height="12"/><rect x="12" y="48" width="12" height="12"/><rect x="24" y="48" width="12" height="12"/><rect x="60" y="48" width="12" height="12"/><rect x="72" y="48" width="12" height="12"/><rect x="108" y="48" width="12" height="12"/><rect x="120" y="48" width="12" height="12"/><rect x="132" y="48" width="12" height="12"/>
    <rect x="0" y="60" width="12" height="12"/><rect x="12" y="60" width="12" height="12"/><rect x="24" y="60" width="12" height="12"/><rect x="60" y="60" width="12" height="12"/><rect x="72" y="60" width="12" height="12"/><rect x="108" y="60" width="12" height="12"/><rect x="120" y="60" width="12" height="12"/><rect x="132" y="60" width="12" height="12"/>
    <rect x="0" y="72" width="12" height="12"/><rect x="12" y="72" width="12" height="12"/><rect x="24" y="72" width="12" height="12"/><rect x="36" y="72" width="12" height="12"/><rect x="48" y="72" width="12" height="12"/><rect x="60" y="72" width="12" height="12"/><rect x="72" y="72" width="12" height="12"/><rect x="84" y="72" width="12" height="12"/><rect x="96" y="72" width="12" height="12"/><rect x="108" y="72" width="12" height="12"/><rect x="120" y="72" width="12" height="12"/><rect x="132" y="72" width="12" height="12"/>
    <rect x="0" y="84" width="12" height="12"/><rect x="12" y="84" width="12" height="12"/><rect x="24" y="84" width="12" height="12"/><rect x="36" y="84" width="12" height="12"/><rect x="48" y="84" width="12" height="12"/><rect x="84" y="84" width="12" height="12"/><rect x="96" y="84" width="12" height="12"/><rect x="108" y="84" width="12" height="12"/><rect x="120" y="84" width="12" height="12"/><rect x="132" y="84" width="12" height="12"/>
    <rect x="0" y="96" width="12" height="12"/><rect x="12" y="96" width="12" height="12"/><rect x="24" y="96" width="12" height="12"/><rect x="36" y="96" width="12" height="12"/><rect x="48" y="96" width="12" height="12"/><rect x="60" y="96" width="12" height="12"/><rect x="72" y="96" width="12" height="12"/><rect x="84" y="96" width="12" height="12"/><rect x="96" y="96" width="12" height="12"/><rect x="108" y="96" width="12" height="12"/><rect x="120" y="96" width="12" height="12"/><rect x="132" y="96" width="12" height="12"/>
    <rect x="12" y="108" width="12" height="12"/><rect x="24" y="108" width="12" height="12"/><rect x="36" y="108" width="12" height="12"/><rect x="48" y="108" width="12" height="12"/><rect x="60" y="108" width="12" height="12"/><rect x="72" y="108" width="12" height="12"/><rect x="84" y="108" width="12" height="12"/><rect x="96" y="108" width="12" height="12"/><rect x="108" y="108" width="12" height="12"/><rect x="120" y="108" width="12" height="12"/>
    <rect x="12" y="120" width="12" height="12"/><rect x="12" y="132" width="12" height="12"/><rect x="12" y="144" width="12" height="12"/><rect x="12" y="156" width="12" height="12"/>
    <rect x="48" y="120" width="12" height="12"/><rect x="48" y="132" width="12" height="12"/><rect x="48" y="144" width="12" height="12"/><rect x="48" y="156" width="12" height="12"/>
    <rect x="84" y="120" width="12" height="12"/><rect x="84" y="132" width="12" height="12"/><rect x="84" y="144" width="12" height="12"/><rect x="84" y="156" width="12" height="12"/>
    <rect x="120" y="120" width="12" height="12"/><rect x="120" y="132" width="12" height="12"/><rect x="120" y="144" width="12" height="12"/><rect x="120" y="156" width="12" height="12"/>
  </g>
  <g fill="#FBE9D2">
    <rect x="36" y="48" width="12" height="12"/><rect x="48" y="48" width="12" height="12"/>
    <rect x="84" y="48" width="12" height="12"/><rect x="96" y="48" width="12" height="12"/>
    <rect x="48" y="60" width="12" height="12"/>
    <rect x="96" y="60" width="12" height="12"/>
    <rect x="60" y="84" width="12" height="12"/><rect x="72" y="84" width="12" height="12"/>
  </g>
  <g fill="#5B1E14">
    <rect x="36" y="60" width="12" height="12"/>
    <rect x="84" y="60" width="12" height="12"/>
  </g>
</svg>
